<?xml version="1.0" standalone="no"?>
<!DOCTYPE svg PUBLIC "-//W3C//DTD SVG 20010904//EN"
 "http://www.w3.org/TR/2001/REC-SVG-20010904/DTD/svg10.dtd">
<svg version="1.0" xmlns="http://www.w3.org/2000/svg"
 width="3508.000000pt" height="2480.000000pt" viewBox="0 0 3508.000000 2480.000000"
 preserveAspectRatio="xMidYMid meet">

<g transform="translate(0.000000,2480.000000) scale(0.100000,-0.100000)"
fill="#000000" stroke="none">
<path d="M4038 16479 c-328 -77 -1007 -661 -1683 -1445 -726 -843 -1241 -1678
-1263 -2046 -2 -49 -2 -88 2 -88 3 0 57 29 119 64 353 200 850 420 1362 601
105 38 191 69 193 71 2 1 -68 73 -155 161 -166 166 -254 272 -299 362 -22 45
-25 62 -20 104 29 251 477 623 1261 1047 312 170 728 363 1033 481 l23 9 -42
78 c-156 287 -286 490 -361 565 -42 42 -51 47 -90 46 -24 -1 -60 -5 -80 -10z"/>
<path d="M5733 15969 c-107 -10 -211 -31 -403 -80 -152 -39 -520 -156 -520
-165 0 -2 48 -105 106 -227 169 -354 391 -866 494 -1140 l33 -88 36 5 c79 13
345 36 486 42 91 4 153 11 157 18 11 16 9 440 -2 731 -20 489 -63 806 -118
868 -30 33 -141 49 -269 36z"/>
<path d="M4505 15606 c-764 -321 -1483 -732 -1864 -1065 -127 -112 -222 -255
-207 -314 14 -56 222 -290 411 -462 l85 -77 163 51 c626 196 1327 366 1932
468 149 25 271 46 273 47 3 4 -102 268 -183 462 -171 406 -429 954 -449 954
-6 0 -78 -29 -161 -64z"/>
<path d="M5870 14173 c-96 -7 -365 -35 -368 -38 -2 -2 34 -113 81 -247 125
-357 222 -683 281 -943 31 -138 66 -329 67 -369 0 -28 1 -29 9 -9 27 66 94
491 124 783 17 161 41 494 52 698 l6 132 -103 -2 c-57 -1 -124 -3 -149 -5z"/>
<path d="M6256 14119 c-3 -35 -8 -127 -11 -204 -22 -520 -96 -1099 -185 -1456
-61 -242 -161 -472 -233 -535 -220 -192 -824 -203 -1853 -34 -1112 183 -2376
537 -2825 791 l-70 40 -87 -60 c-258 -178 -427 -380 -427 -511 0 -196 726
-1253 1471 -2140 853 -1016 1570 -1641 2074 -1806 77 -25 98 -28 225 -28 123
1 151 4 230 28 118 36 248 101 365 184 121 85 348 312 464 462 377 489 731
1207 1027 2080 382 1126 611 2368 534 2885 -32 215 -105 282 -363 335 -54 11
-151 23 -214 26 l-116 7 -6 -64z"/>
<path d="M5245 14103 c-650 -103 -1312 -256 -1985 -460 -102 -30 -189 -59
-193 -63 -15 -14 380 -340 731 -603 514 -385 938 -658 1297 -833 222 -109 362
-156 477 -162 76 -4 91 -2 122 17 42 26 93 100 103 150 5 20 8 113 7 206 -1
188 -22 334 -90 615 -83 345 -339 1139 -370 1146 -5 1 -49 -5 -99 -13z"/>
<path d="M8603 12858 c4 -1016 2 -977 68 -1185 130 -406 410 -644 864 -735
150 -30 506 -33 660 -4 469 86 778 350 900 771 60 209 58 170 62 1163 l4 912
-277 0 c-185 0 -290 -4 -316 -12 -56 -17 -131 -87 -159 -150 l-24 -53 -5 -775
c-5 -716 -7 -779 -24 -830 -46 -139 -124 -237 -229 -288 -78 -38 -146 -52
-250 -52 -199 0 -348 84 -427 240 -67 133 -64 87 -70 935 l-5 770 -23 50 c-30
65 -75 112 -137 141 -49 23 -56 24 -333 24 l-283 0 4 -922z"/>
<path d="M11420 12370 l0 -1410 258 0 c297 0 332 6 404 70 26 23 55 61 69 92
l24 53 5 659 5 660 581 -765 581 -764 336 -3 337 -2 0 1410 0 1410 -268 0
c-306 0 -334 -5 -403 -72 -22 -22 -51 -61 -62 -86 -22 -46 -22 -58 -27 -681
l-5 -634 -559 737 -559 736 -359 0 -358 0 0 -1410z"/>
<path d="M14290 12486 c0 -1278 0 -1296 20 -1350 27 -72 98 -139 171 -160 42
-13 105 -16 316 -16 l263 0 0 1293 c0 848 -4 1305 -10 1329 -17 59 -71 130
-124 163 l-49 30 -294 3 -293 3 0 -1295z"/>
<path d="M21485 13755 c-544 -88 -960 -434 -1132 -940 -50 -147 -73 -298 -73
-475 0 -305 75 -567 231 -805 68 -104 260 -296 364 -364 468 -307 1103 -333
1650 -66 115 56 261 148 333 210 l42 37 -2 611 -3 612 -617 3 -618 2 0 -180
c0 -203 8 -251 53 -305 54 -66 87 -75 295 -75 l182 0 -2 -167 -3 -168 -65 -32
c-94 -46 -169 -64 -305 -70 -156 -7 -256 11 -380 72 -261 126 -409 401 -392
725 13 224 89 396 240 537 132 123 297 180 491 170 148 -8 217 -27 366 -100
109 -53 132 -61 185 -61 106 -1 134 20 303 227 81 99 153 190 161 200 13 18
10 23 -25 53 -68 59 -242 172 -327 213 -111 53 -242 95 -373 121 -143 29 -446
36 -579 15z"/>
<path d="M32355 13755 c-536 -87 -959 -433 -1133 -926 -61 -173 -77 -274 -77
-484 0 -209 13 -294 65 -455 65 -200 171 -377 317 -531 160 -168 356 -290 581
-363 171 -55 271 -70 467 -70 196 0 296 15 467 70 530 171 904 630 969 1188
14 121 7 330 -16 444 -97 497 -439 892 -918 1061 -152 53 -263 72 -457 76
-123 3 -202 0 -265 -10z m389 -695 c237 -60 422 -251 490 -505 24 -87 31 -249
16 -342 -55 -345 -305 -583 -629 -600 -275 -14 -513 129 -636 382 -62 127 -79
203 -78 360 1 155 21 245 83 363 92 177 234 295 412 342 100 26 241 26 342 0z"/>
<path d="M16304 13745 c-465 -82 -758 -379 -790 -803 -12 -154 25 -334 92
-448 15 -25 52 -73 82 -106 146 -157 359 -255 794 -363 337 -83 431 -124 474
-207 30 -58 10 -144 -44 -190 -55 -46 -123 -62 -257 -62 -237 0 -400 48 -678
197 -78 42 -142 48 -216 22 -62 -22 -79 -37 -233 -226 l-141 -173 45 -41 c159
-144 431 -282 683 -348 192 -50 283 -61 520 -61 190 0 234 3 323 22 344 75
569 237 687 495 58 127 70 192 70 377 -1 155 -2 170 -29 245 -85 245 -268 396
-624 516 -62 21 -215 64 -340 94 -336 84 -426 128 -451 223 -23 83 15 155 100
191 145 63 405 25 662 -96 113 -53 121 -55 186 -51 115 6 142 30 298 253 100
145 129 193 121 203 -6 7 -58 44 -114 82 -189 126 -373 199 -625 246 -118 23
-486 28 -595 9z"/>
<path d="M18673 13728 c-7 -10 -1098 -2648 -1129 -2730 -6 -17 17 -18 384 -18
l390 0 80 203 c43 111 85 219 93 240 l13 37 517 0 517 0 95 -237 95 -238 400
-3 399 -2 -519 1257 c-285 692 -529 1276 -543 1298 -54 94 -171 173 -285 195
-80 15 -495 13 -507 -2z m503 -1291 l143 -372 -291 -3 c-160 -1 -293 -1 -295
1 -2 2 54 150 123 328 69 178 135 348 146 377 11 29 23 51 26 47 3 -3 70 -173
148 -378z"/>
<path d="M26646 13708 c-42 -99 -1089 -2637 -1097 -2657 -9 -22 -37 16 -309
425 -165 247 -300 452 -300 455 0 4 10 9 23 13 49 12 196 114 267 185 177 177
251 368 251 651 0 289 -80 492 -257 661 -141 132 -297 205 -554 255 -73 14
-186 17 -822 21 l-738 4 0 -1370 0 -1371 375 0 375 0 0 410 0 410 161 -2 161
-3 205 -315 c112 -173 219 -334 239 -357 45 -55 111 -100 182 -124 54 -18 89
-19 777 -17 l719 3 92 235 92 235 518 0 519 0 93 -237 94 -238 399 0 399 0 -9
23 c-111 286 -1042 2517 -1066 2554 -42 64 -123 127 -201 155 -54 20 -82 23
-317 26 l-257 4 -14 -34z m-2232 -658 c155 -18 249 -77 297 -185 34 -77 32
-204 -5 -278 -47 -97 -140 -158 -271 -177 -39 -5 -184 -10 -322 -10 l-253 0 0
330 0 330 233 0 c127 0 272 -5 321 -10z m2744 -606 c79 -207 141 -378 139
-380 -2 -3 -135 -3 -294 -2 l-290 3 146 377 c80 208 148 378 151 378 3 0 69
-170 148 -376z"/>
<path d="M28550 12350 l0 -1370 598 0 c472 0 619 3 701 15 266 38 488 119 681
248 101 67 275 243 339 342 94 143 152 289 193 479 29 136 31 423 5 566 -103
551 -489 927 -1071 1045 -187 38 -337 45 -912 45 l-534 0 0 -1370z m1283 662
c241 -65 409 -229 467 -458 15 -58 20 -111 20 -209 0 -98 -5 -151 -20 -209
-68 -267 -282 -441 -588 -476 -48 -5 -162 -10 -254 -10 l-168 0 0 696 0 696
233 -5 c194 -4 245 -8 310 -25z"/>
<path d="M2700 13460 c-407 -140 -744 -277 -1060 -431 -213 -104 -430 -220
-430 -230 0 -20 298 -139 600 -240 1103 -366 2564 -652 3315 -648 l140 1 -50
21 c-107 45 -407 200 -545 283 -483 288 -1126 755 -1600 1163 -74 64 -144 123
-155 132 -19 16 -31 13 -215 -51z"/>
<path d="M31517 10268 l-56 -73 51 -3 c45 -3 54 0 82 27 18 17 36 31 41 31 5
0 23 -14 41 -31 28 -27 37 -30 83 -27 l53 3 -58 73 -57 72 -62 0 -62 0 -56
-72z"/>
<path d="M27480 10190 l0 -141 -38 31 c-131 105 -337 36 -386 -131 -60 -202
58 -390 245 -389 51 0 118 28 154 64 l25 25 0 -39 0 -40 65 0 65 0 0 380 0
380 -65 0 -65 0 0 -140z m-71 -197 c50 -38 71 -80 71 -148 0 -68 -21 -110 -73
-149 -39 -29 -125 -29 -164 0 -83 62 -98 198 -30 273 49 53 141 64 196 24z"/>
<path d="M31120 9950 l0 -380 65 0 65 0 0 380 0 380 -65 0 -65 0 0 -380z"/>
<path d="M20540 10260 l0 -60 70 0 70 0 0 60 0 60 -70 0 -70 0 0 -60z"/>
<path d="M25410 10260 l0 -60 70 0 70 0 0 60 0 60 -70 0 -70 0 0 -60z"/>
<path d="M33220 10260 l0 -60 70 0 70 0 0 60 0 60 -70 0 -70 0 0 -60z"/>
<path d="M22551 10293 c-145 -51 -189 -243 -78 -338 38 -33 76 -48 234 -94
111 -33 144 -92 84 -152 -27 -27 -35 -29 -103 -29 -78 0 -134 19 -194 65 l-33
25 -40 -47 -40 -48 27 -22 c116 -94 314 -121 429 -59 28 15 60 41 72 56 53 72
52 185 -1 246 -40 45 -85 68 -200 100 -51 15 -105 33 -120 40 -55 28 -63 81
-19 125 27 26 36 29 94 29 53 0 76 -6 131 -33 l66 -34 35 48 35 49 -38 25
c-86 59 -245 82 -341 48z"/>
<path d="M18740 9935 l0 -365 275 0 276 0 -3 58 -3 57 -207 3 -208 2 0 95 0
95 185 0 186 0 -3 58 -3 57 -182 3 -183 2 0 90 0 90 205 0 205 0 0 60 0 60
-270 0 -270 0 0 -365z"/>
<path d="M28670 9935 l0 -365 275 0 276 0 -3 58 -3 57 -207 3 -208 2 0 95 0
95 185 0 186 0 -3 58 -3 57 -182 3 -183 2 0 90 0 90 205 0 205 0 0 60 0 60
-270 0 -270 0 0 -365z"/>
<path d="M19630 10119 c-14 -6 -40 -24 -57 -42 l-33 -31 0 37 0 37 -65 0 -65
0 0 -275 0 -275 64 0 65 0 3 191 3 191 33 29 c26 23 42 29 78 29 103 0 114
-26 114 -260 l0 -180 65 0 65 0 0 203 c-1 258 -13 296 -105 338 -43 20 -125
24 -165 8z"/>
<path d="M20138 10121 c-131 -43 -161 -209 -52 -282 16 -11 61 -29 99 -40 104
-32 125 -44 125 -78 0 -35 -17 -50 -64 -58 -40 -6 -126 18 -169 49 -15 11 -29
19 -30 17 -2 -2 -15 -23 -30 -46 l-27 -43 23 -14 c67 -45 122 -61 207 -61 139
0 201 46 208 154 6 96 -33 133 -192 187 -81 28 -96 39 -96 70 0 57 92 69 180
24 23 -12 45 -18 50 -15 6 4 19 24 31 46 l20 40 -58 26 c-61 28 -174 40 -225
24z"/>
<path d="M21040 10119 c-14 -6 -40 -24 -57 -42 l-33 -31 0 37 0 37 -65 0 -65
0 0 -275 0 -275 64 0 65 0 3 191 3 191 33 29 c26 23 42 29 78 29 103 0 114
-26 114 -260 l0 -180 65 0 65 0 0 203 c-1 258 -13 296 -105 338 -43 20 -125
24 -165 8z"/>
<path d="M21630 10121 c-165 -51 -249 -214 -193 -377 22 -66 101 -145 167
-167 115 -39 242 -11 319 72 61 66 80 110 80 196 1 123 -66 222 -179 265 -56
20 -145 25 -194 11z m132 -111 c71 -20 126 -114 114 -193 -14 -84 -82 -147
-161 -147 -45 0 -109 34 -135 71 -30 42 -38 129 -17 181 31 75 114 111 199 88z"/>
<path d="M23933 10118 c-18 -6 -48 -25 -67 -43 l-36 -33 0 39 0 39 -65 0 -65
0 0 -360 0 -360 65 0 65 0 0 121 0 121 33 -28 c97 -82 228 -73 323 21 40 40
54 62 67 111 9 33 17 78 17 99 0 21 -8 66 -17 99 -13 49 -27 71 -67 111 -71
70 -160 92 -253 63z m136 -127 c46 -33 65 -76 65 -146 0 -69 -19 -113 -64
-145 -105 -75 -242 6 -244 144 -1 137 139 221 243 147z"/>
<path d="M24527 10116 c-109 -40 -177 -142 -177 -271 0 -171 114 -285 287
-285 66 0 147 30 189 71 l32 31 -36 33 -36 32 -45 -28 c-57 -37 -145 -41 -196
-9 -30 19 -65 72 -65 99 0 8 62 11 201 11 l202 0 -5 68 c-12 161 -113 263
-262 262 -28 -1 -68 -7 -89 -14z m167 -117 c30 -24 56 -69 56 -99 0 -19 -6
-20 -135 -20 -146 0 -146 0 -125 56 6 14 24 39 41 55 26 24 40 29 84 29 38 0
60 -6 79 -21z"/>
<path d="M25212 10109 c-24 -12 -54 -38 -68 -58 l-24 -36 0 53 0 52 -65 0 -65
0 0 -275 0 -275 65 0 65 0 0 142 c0 124 3 147 21 185 26 55 81 93 131 93 l38
0 0 70 c0 70 0 70 -27 70 -16 0 -47 -10 -71 -21z"/>
<path d="M25870 10121 c-165 -51 -249 -214 -193 -377 22 -66 101 -145 167
-167 115 -39 242 -11 319 72 61 66 80 110 80 196 1 123 -66 222 -179 265 -56
20 -145 25 -194 11z m132 -111 c71 -20 126 -114 114 -193 -14 -84 -82 -147
-161 -147 -45 0 -109 34 -135 71 -30 42 -38 129 -17 181 31 75 114 111 199 88z"/>
<path d="M26582 10109 c-24 -12 -54 -38 -68 -58 l-24 -36 0 53 0 52 -65 0 -65
0 0 -275 0 -275 65 0 65 0 0 142 c0 124 3 147 21 185 26 55 81 93 131 93 l38
0 0 70 c0 70 0 70 -27 70 -16 0 -47 -10 -71 -21z"/>
<path d="M27897 10116 c-109 -40 -177 -142 -177 -271 0 -171 114 -285 287
-285 66 0 147 30 189 71 l32 31 -36 33 -36 32 -45 -28 c-57 -37 -145 -41 -196
-9 -30 19 -65 72 -65 99 0 8 62 11 201 11 l202 0 -5 68 c-12 161 -113 263
-262 262 -28 -1 -68 -7 -89 -14z m167 -117 c30 -24 56 -69 56 -99 0 -19 -6
-20 -135 -20 -146 0 -146 0 -125 56 6 14 24 39 41 55 26 24 40 29 84 29 38 0
60 -6 79 -21z"/>
<path d="M30080 10113 c-61 -22 -142 -104 -163 -167 -37 -108 -11 -230 65
-303 69 -66 100 -78 203 -78 99 0 134 12 193 68 l32 31 -36 38 -37 37 -45 -32
c-38 -27 -53 -32 -102 -32 -93 0 -150 54 -158 148 -6 71 11 119 53 156 60 53
148 51 213 -4 l29 -24 36 37 c21 21 37 43 37 49 0 18 -79 69 -125 82 -55 15
-142 12 -195 -6z"/>
<path d="M30657 10116 c-109 -40 -177 -142 -177 -271 0 -171 114 -285 287
-285 66 0 147 30 189 71 l32 31 -36 33 -36 32 -45 -28 c-57 -37 -145 -41 -196
-9 -30 19 -65 72 -65 99 0 8 62 11 201 11 l202 0 -5 68 c-12 161 -113 263
-262 262 -28 -1 -68 -7 -89 -14z m167 -117 c30 -24 56 -69 56 -99 0 -19 -6
-20 -135 -20 -146 0 -146 0 -125 56 6 14 24 39 41 55 26 24 40 29 84 29 38 0
60 -6 79 -21z"/>
<path d="M31547 10116 c-109 -40 -177 -142 -177 -271 0 -171 114 -285 287
-285 66 0 147 30 189 71 l32 31 -36 33 -36 32 -45 -28 c-57 -37 -145 -41 -196
-9 -30 19 -65 72 -65 99 0 8 62 11 201 11 l202 0 -5 68 c-12 161 -113 263
-262 262 -28 -1 -68 -7 -89 -14z m167 -117 c30 -24 56 -69 56 -99 0 -19 -6
-20 -135 -20 -146 0 -146 0 -125 56 6 14 24 39 41 55 26 24 40 29 84 29 38 0
60 -6 79 -21z"/>
<path d="M32230 10119 c-14 -6 -40 -24 -57 -42 l-33 -31 0 37 0 37 -65 0 -65
0 0 -275 0 -275 64 0 65 0 3 191 3 191 33 29 c26 23 42 29 78 29 103 0 114
-26 114 -260 l0 -180 65 0 65 0 0 203 c-1 258 -13 296 -105 338 -43 20 -125
24 -165 8z"/>
<path d="M32790 10113 c-61 -22 -142 -104 -163 -167 -37 -108 -11 -230 65
-303 69 -66 100 -78 203 -78 99 0 134 12 193 68 l32 31 -36 38 -37 37 -45 -32
c-38 -27 -53 -32 -102 -32 -93 0 -150 54 -158 148 -6 71 11 119 53 156 60 53
148 51 213 -4 l29 -24 36 37 c21 21 37 43 37 49 0 18 -79 69 -125 82 -55 15
-142 12 -195 -6z"/>
<path d="M33625 10125 c-5 -2 -28 -9 -50 -14 -68 -18 -70 -22 -51 -79 l17 -51
38 14 c39 13 99 20 159 17 46 -3 92 -49 92 -92 0 -27 -3 -31 -17 -25 -10 4
-55 10 -99 13 -163 9 -254 -55 -254 -180 0 -95 65 -157 173 -165 73 -6 124 7
167 44 l30 25 0 -31 0 -31 65 0 65 0 0 198 c0 193 -1 199 -26 250 -39 78 -91
105 -209 109 -49 1 -94 1 -100 -2z m168 -310 c35 -6 37 -8 37 -43 0 -70 -52
-112 -138 -112 -64 0 -102 27 -102 75 0 45 28 76 76 85 39 7 54 6 127 -5z"/>
<path d="M20540 9845 l0 -275 65 0 65 0 0 275 0 275 -65 0 -65 0 0 -275z"/>
<path d="M23060 9932 c0 -137 4 -202 15 -238 16 -54 62 -106 108 -123 72 -27
182 -1 225 54 l22 28 0 -42 0 -41 65 0 65 0 0 275 0 275 -64 0 -64 0 -4 -182
c-3 -199 -9 -222 -64 -246 -36 -17 -96 -15 -123 4 -43 31 -51 70 -51 254 l0
170 -65 0 -65 0 0 -188z"/>
<path d="M25410 9845 l0 -275 65 0 65 0 0 275 0 275 -65 0 -65 0 0 -275z"/>
<path d="M29306 10108 c5 -7 48 -68 96 -136 l89 -123 -78 -107 c-42 -59 -88
-122 -101 -139 l-24 -33 70 0 71 0 62 90 c33 50 64 90 68 90 4 0 36 -40 70
-90 l62 -90 71 0 70 0 -15 23 c-8 13 -53 76 -100 141 l-86 118 81 112 c44 61
87 118 94 127 23 26 17 29 -53 29 l-68 -1 -58 -84 c-32 -47 -61 -85 -65 -85
-4 0 -33 39 -65 85 l-58 85 -70 0 c-54 0 -68 -3 -63 -12z"/>
<path d="M33220 9845 l0 -275 65 0 65 0 0 275 0 275 -65 0 -65 0 0 -275z"/>
</g>
</svg>
